%TF.GenerationSoftware,KiCad,Pcbnew,(6.0.7)*%
%TF.CreationDate,2023-03-26T16:07:27+02:00*%
%TF.ProjectId,MAX682 Test,4d415836-3832-4205-9465-73742e6b6963,rev?*%
%TF.SameCoordinates,PX46bb6c0PY6638f20*%
%TF.FileFunction,Copper,L1,Top*%
%TF.FilePolarity,Positive*%
%FSLAX46Y46*%
G04 Gerber Fmt 4.6, Leading zero omitted, Abs format (unit mm)*
G04 Created by KiCad (PCBNEW (6.0.7)) date 2023-03-26 16:07:27*
%MOMM*%
%LPD*%
G01*
G04 APERTURE LIST*
G04 Aperture macros list*
%AMRoundRect*
0 Rectangle with rounded corners*
0 $1 Rounding radius*
0 $2 $3 $4 $5 $6 $7 $8 $9 X,Y pos of 4 corners*
0 Add a 4 corners polygon primitive as box body*
4,1,4,$2,$3,$4,$5,$6,$7,$8,$9,$2,$3,0*
0 Add four circle primitives for the rounded corners*
1,1,$1+$1,$2,$3*
1,1,$1+$1,$4,$5*
1,1,$1+$1,$6,$7*
1,1,$1+$1,$8,$9*
0 Add four rect primitives between the rounded corners*
20,1,$1+$1,$2,$3,$4,$5,0*
20,1,$1+$1,$4,$5,$6,$7,0*
20,1,$1+$1,$6,$7,$8,$9,0*
20,1,$1+$1,$8,$9,$2,$3,0*%
G04 Aperture macros list end*
%TA.AperFunction,ComponentPad*%
%ADD10R,3.000000X3.000000*%
%TD*%
%TA.AperFunction,ComponentPad*%
%ADD11C,3.000000*%
%TD*%
%TA.AperFunction,SMDPad,CuDef*%
%ADD12RoundRect,0.237500X0.300000X0.237500X-0.300000X0.237500X-0.300000X-0.237500X0.300000X-0.237500X0*%
%TD*%
%TA.AperFunction,SMDPad,CuDef*%
%ADD13RoundRect,0.237500X-0.250000X-0.237500X0.250000X-0.237500X0.250000X0.237500X-0.250000X0.237500X0*%
%TD*%
%TA.AperFunction,SMDPad,CuDef*%
%ADD14R,1.450000X0.800000*%
%TD*%
%TA.AperFunction,SMDPad,CuDef*%
%ADD15RoundRect,0.237500X0.237500X-0.300000X0.237500X0.300000X-0.237500X0.300000X-0.237500X-0.300000X0*%
%TD*%
%TA.AperFunction,Conductor*%
%ADD16C,0.600000*%
%TD*%
G04 APERTURE END LIST*
D10*
%TO.P,J2,1,Pin_1*%
%TO.N,GND*%
X21844000Y10160000D03*
D11*
%TO.P,J2,2,Pin_2*%
%TO.N,+5V*%
X21844000Y15240000D03*
%TD*%
D12*
%TO.P,C5,1*%
%TO.N,GND*%
X12546500Y8763000D03*
%TO.P,C5,2*%
%TO.N,+3V3*%
X10821500Y8763000D03*
%TD*%
D13*
%TO.P,R1,1*%
%TO.N,+3V3*%
X9009000Y16764000D03*
%TO.P,R1,2*%
%TO.N,Net-(R1-Pad2)*%
X10834000Y16764000D03*
%TD*%
D14*
%TO.P,U2,1,SKIP*%
%TO.N,+3V3*%
X9059000Y14605000D03*
%TO.P,U2,2,SHDN*%
%TO.N,Net-(R1-Pad2)*%
X9059000Y13335000D03*
%TO.P,U2,3,IN*%
%TO.N,+3V3*%
X9059000Y12065000D03*
%TO.P,U2,4,GND*%
%TO.N,GND*%
X9059000Y10795000D03*
%TO.P,U2,5,PGND*%
X14309000Y10795000D03*
%TO.P,U2,6,CXN*%
%TO.N,Net-(C6-Pad1)*%
X14309000Y12065000D03*
%TO.P,U2,7,CXP*%
%TO.N,Net-(C6-Pad2)*%
X14309000Y13335000D03*
%TO.P,U2,8,OUT*%
%TO.N,+5V*%
X14309000Y14605000D03*
%TD*%
D15*
%TO.P,C6,1*%
%TO.N,Net-(C6-Pad1)*%
X16256000Y11837500D03*
%TO.P,C6,2*%
%TO.N,Net-(C6-Pad2)*%
X16256000Y13562500D03*
%TD*%
D11*
%TO.P,J1,1,Pin_1*%
%TO.N,+3V3*%
X3556000Y15240000D03*
D10*
%TO.P,J1,2,Pin_2*%
%TO.N,GND*%
X3556000Y10160000D03*
%TD*%
D12*
%TO.P,C7,1*%
%TO.N,+5V*%
X14832500Y16764000D03*
%TO.P,C7,2*%
%TO.N,GND*%
X13107500Y16764000D03*
%TD*%
D16*
%TO.N,GND*%
X14309000Y10795000D02*
X12546500Y10795000D01*
X12546500Y15340500D02*
X12546500Y10006500D01*
X13107500Y15901500D02*
X12546500Y15340500D01*
X13107500Y16764000D02*
X13107500Y15901500D01*
X13107500Y16764000D02*
X13107500Y18081500D01*
%TO.N,+5V*%
X15875000Y16129000D02*
X15875000Y14986000D01*
X15240000Y16764000D02*
X15875000Y16129000D01*
X15875000Y14986000D02*
X15494000Y14605000D01*
X15494000Y14605000D02*
X14309000Y14605000D01*
X14832500Y16764000D02*
X15240000Y16764000D01*
%TO.N,Net-(R1-Pad2)*%
X10834000Y14009000D02*
X10834000Y16764000D01*
X10160000Y13335000D02*
X10834000Y14009000D01*
X9059000Y13335000D02*
X10160000Y13335000D01*
%TO.N,GND*%
X12546500Y8763000D02*
X12546500Y10006500D01*
X12546500Y8763000D02*
X12546500Y7773500D01*
X12546500Y7773500D02*
X12700000Y7620000D01*
X12700000Y7620000D02*
X16510000Y7620000D01*
X8890000Y7620000D02*
X12700000Y7620000D01*
X16510000Y7620000D02*
X19050000Y10160000D01*
X19050000Y10160000D02*
X21844000Y10160000D01*
X6350000Y10160000D02*
X8890000Y7620000D01*
X6985000Y10795000D02*
X9059000Y10795000D01*
X6350000Y10160000D02*
X6985000Y10795000D01*
X3556000Y10160000D02*
X6350000Y10160000D01*
%TO.N,+5V*%
X21844000Y15240000D02*
X15875000Y15240000D01*
%TO.N,+3V3*%
X8128000Y16764000D02*
X7493000Y16129000D01*
X7747000Y12065000D02*
X7493000Y12319000D01*
X9059000Y12065000D02*
X7747000Y12065000D01*
X10821500Y11530500D02*
X10821500Y8763000D01*
X3556000Y15240000D02*
X7493000Y15240000D01*
X9009000Y16764000D02*
X8128000Y16764000D01*
X10287000Y12065000D02*
X10821500Y11530500D01*
X9059000Y12065000D02*
X10287000Y12065000D01*
X7493000Y12319000D02*
X7493000Y14605000D01*
X7493000Y16129000D02*
X7493000Y14605000D01*
X9059000Y14605000D02*
X7493000Y14605000D01*
%TO.N,Net-(C6-Pad1)*%
X16036250Y12065000D02*
X16263750Y11837500D01*
X14309000Y12065000D02*
X16036250Y12065000D01*
%TO.N,Net-(C6-Pad2)*%
X14309000Y13335000D02*
X16036250Y13335000D01*
X16036250Y13335000D02*
X16263750Y13562500D01*
%TD*%
%TA.AperFunction,Conductor*%
%TO.N,GND*%
G36*
X22863522Y19048802D02*
G01*
X23090890Y19036033D01*
X23091433Y19036001D01*
X23139589Y19033088D01*
X23153086Y19031538D01*
X23327450Y19001913D01*
X23329058Y19001629D01*
X23431144Y18982920D01*
X23443312Y18980060D01*
X23602787Y18934117D01*
X23605376Y18933341D01*
X23663134Y18915343D01*
X23714786Y18899247D01*
X23725518Y18895361D01*
X23821765Y18855494D01*
X23874739Y18833552D01*
X23878219Y18832048D01*
X23986664Y18783241D01*
X23995894Y18778624D01*
X24135316Y18701568D01*
X24139501Y18699147D01*
X24243120Y18636508D01*
X24250824Y18631455D01*
X24379778Y18539956D01*
X24384557Y18536393D01*
X24480647Y18461111D01*
X24486877Y18455896D01*
X24604395Y18350875D01*
X24609530Y18346019D01*
X24696019Y18259530D01*
X24700875Y18254395D01*
X24805896Y18136877D01*
X24811111Y18130647D01*
X24886393Y18034557D01*
X24889956Y18029778D01*
X24981455Y17900824D01*
X24986508Y17893120D01*
X25049147Y17789501D01*
X25051578Y17785298D01*
X25128620Y17645901D01*
X25133241Y17636664D01*
X25182048Y17528219D01*
X25183558Y17524725D01*
X25245361Y17375518D01*
X25249247Y17364786D01*
X25283336Y17255392D01*
X25284117Y17252787D01*
X25330060Y17093312D01*
X25332920Y17081144D01*
X25351629Y16979058D01*
X25351913Y16977450D01*
X25381538Y16803086D01*
X25383088Y16789589D01*
X25386001Y16741433D01*
X25386033Y16740890D01*
X25398802Y16513522D01*
X25399000Y16506457D01*
X25399000Y8893543D01*
X25398802Y8886478D01*
X25386033Y8659110D01*
X25386001Y8658567D01*
X25383088Y8610411D01*
X25381538Y8596914D01*
X25351913Y8422550D01*
X25351629Y8420942D01*
X25332920Y8318856D01*
X25330060Y8306688D01*
X25284117Y8147213D01*
X25283336Y8144608D01*
X25249247Y8035214D01*
X25245361Y8024482D01*
X25183558Y7875275D01*
X25182048Y7871781D01*
X25133241Y7763336D01*
X25128620Y7754099D01*
X25051578Y7614702D01*
X25049147Y7610499D01*
X24986508Y7506880D01*
X24981455Y7499176D01*
X24889956Y7370222D01*
X24886393Y7365443D01*
X24811111Y7269353D01*
X24805896Y7263123D01*
X24700875Y7145605D01*
X24696019Y7140470D01*
X24609530Y7053981D01*
X24604395Y7049125D01*
X24486877Y6944104D01*
X24480647Y6938889D01*
X24384557Y6863607D01*
X24379778Y6860044D01*
X24250824Y6768545D01*
X24243120Y6763492D01*
X24139501Y6700853D01*
X24135316Y6698432D01*
X23995894Y6621376D01*
X23986664Y6616759D01*
X23878219Y6567952D01*
X23874739Y6566448D01*
X23821765Y6544506D01*
X23725518Y6504639D01*
X23714786Y6500753D01*
X23663134Y6484657D01*
X23605376Y6466659D01*
X23602787Y6465883D01*
X23443312Y6419940D01*
X23431144Y6417080D01*
X23329058Y6398371D01*
X23327450Y6398087D01*
X23153086Y6368462D01*
X23139589Y6366912D01*
X23091433Y6363999D01*
X23090890Y6363967D01*
X22863522Y6351198D01*
X22856457Y6351000D01*
X2543543Y6351000D01*
X2536478Y6351198D01*
X2309110Y6363967D01*
X2308567Y6363999D01*
X2260411Y6366912D01*
X2246914Y6368462D01*
X2072550Y6398087D01*
X2070942Y6398371D01*
X1968856Y6417080D01*
X1956688Y6419940D01*
X1797213Y6465883D01*
X1794624Y6466659D01*
X1736866Y6484657D01*
X1685214Y6500753D01*
X1674482Y6504639D01*
X1578235Y6544506D01*
X1525261Y6566448D01*
X1521781Y6567952D01*
X1413336Y6616759D01*
X1404106Y6621376D01*
X1264684Y6698432D01*
X1260499Y6700853D01*
X1156880Y6763492D01*
X1149176Y6768545D01*
X1020222Y6860044D01*
X1015443Y6863607D01*
X919353Y6938889D01*
X913123Y6944104D01*
X795605Y7049125D01*
X790470Y7053981D01*
X703981Y7140470D01*
X699125Y7145605D01*
X594104Y7263123D01*
X588889Y7269353D01*
X513607Y7365443D01*
X510044Y7370222D01*
X418545Y7499176D01*
X413492Y7506880D01*
X350853Y7610499D01*
X348422Y7614702D01*
X271380Y7754099D01*
X266759Y7763336D01*
X217952Y7871781D01*
X216442Y7875275D01*
X154639Y8024482D01*
X150753Y8035214D01*
X116664Y8144608D01*
X115883Y8147213D01*
X69940Y8306688D01*
X67080Y8318856D01*
X48371Y8420942D01*
X48087Y8422550D01*
X18462Y8596914D01*
X16912Y8610411D01*
X13999Y8658567D01*
X13967Y8659110D01*
X1198Y8886478D01*
X1000Y8893543D01*
X1000Y11685067D01*
X1801500Y11685067D01*
X1801501Y8634934D01*
X1816266Y8560699D01*
X1872516Y8476516D01*
X1956699Y8420266D01*
X2030933Y8405500D01*
X3555753Y8405500D01*
X5081066Y8405501D01*
X5116818Y8412612D01*
X5143126Y8417844D01*
X5143128Y8417845D01*
X5155301Y8420266D01*
X5165621Y8427161D01*
X5165622Y8427162D01*
X5229168Y8469623D01*
X5239484Y8476516D01*
X5295734Y8560699D01*
X5310500Y8634933D01*
X5310499Y11685066D01*
X5295734Y11759301D01*
X5239484Y11843484D01*
X5155301Y11899734D01*
X5081067Y11914500D01*
X3556247Y11914500D01*
X2030934Y11914499D01*
X1995182Y11907388D01*
X1968874Y11902156D01*
X1968872Y11902155D01*
X1956699Y11899734D01*
X1946379Y11892839D01*
X1946378Y11892838D01*
X1885985Y11852484D01*
X1872516Y11843484D01*
X1816266Y11759301D01*
X1801500Y11685067D01*
X1000Y11685067D01*
X1000Y15284639D01*
X1851316Y15284639D01*
X1851540Y15279973D01*
X1851540Y15279967D01*
X1853309Y15243149D01*
X1863443Y15032180D01*
X1912752Y14784287D01*
X1914331Y14779889D01*
X1914333Y14779882D01*
X1974203Y14613131D01*
X1998160Y14546405D01*
X2117792Y14323760D01*
X2120587Y14320016D01*
X2120589Y14320014D01*
X2266226Y14124982D01*
X2266231Y14124976D01*
X2269018Y14121244D01*
X2272327Y14117964D01*
X2272332Y14117958D01*
X2445200Y13946592D01*
X2448517Y13943304D01*
X2452279Y13940546D01*
X2452282Y13940543D01*
X2648575Y13796616D01*
X2652346Y13793851D01*
X2656481Y13791675D01*
X2656485Y13791673D01*
X2773952Y13729871D01*
X2876026Y13676167D01*
X3114644Y13592838D01*
X3119237Y13591966D01*
X3358369Y13546565D01*
X3358372Y13546565D01*
X3362958Y13545694D01*
X3483081Y13540974D01*
X3610845Y13535954D01*
X3610850Y13535954D01*
X3615513Y13535771D01*
X3693657Y13544329D01*
X3862107Y13562777D01*
X3862112Y13562778D01*
X3866760Y13563287D01*
X3984861Y13594380D01*
X4106658Y13626446D01*
X4106661Y13626447D01*
X4111181Y13627637D01*
X4343405Y13727409D01*
X4450774Y13793851D01*
X4554358Y13857950D01*
X4554362Y13857953D01*
X4558331Y13860409D01*
X4652989Y13940543D01*
X4747672Y14020698D01*
X4747673Y14020699D01*
X4751238Y14023717D01*
X4833886Y14117958D01*
X4914806Y14210229D01*
X4914810Y14210234D01*
X4917888Y14213744D01*
X4988653Y14323760D01*
X5052094Y14422390D01*
X5052096Y14422393D01*
X5054619Y14426316D01*
X5138939Y14613500D01*
X5156506Y14652497D01*
X5156507Y14652499D01*
X5158428Y14656764D01*
X5158619Y14657441D01*
X5200096Y14713769D01*
X5266418Y14739104D01*
X5276399Y14739500D01*
X6866500Y14739500D01*
X6934621Y14719498D01*
X6981114Y14665842D01*
X6992498Y14612731D01*
X6992031Y14536376D01*
X6992411Y14535048D01*
X6992500Y14533737D01*
X6992500Y12389181D01*
X6991172Y12377296D01*
X6991682Y12377255D01*
X6990962Y12368309D01*
X6988981Y12359553D01*
X6989537Y12350593D01*
X6992258Y12306736D01*
X6992500Y12298933D01*
X6992500Y12283060D01*
X6993135Y12278626D01*
X6993948Y12272950D01*
X6994978Y12262894D01*
X6997859Y12216462D01*
X7000907Y12208018D01*
X7001676Y12204306D01*
X7005343Y12189601D01*
X7006404Y12185973D01*
X7007677Y12177082D01*
X7026939Y12134718D01*
X7030746Y12125363D01*
X7043491Y12090057D01*
X7043493Y12090053D01*
X7046540Y12081613D01*
X7051835Y12074365D01*
X7053611Y12071025D01*
X7061274Y12057911D01*
X7063303Y12054739D01*
X7067016Y12046572D01*
X7072871Y12039777D01*
X7072873Y12039774D01*
X7097387Y12011325D01*
X7103675Y12003405D01*
X7111522Y11992664D01*
X7122265Y11981921D01*
X7128623Y11975075D01*
X7160600Y11937963D01*
X7168134Y11933080D01*
X7174896Y11927181D01*
X7174892Y11927176D01*
X7185986Y11918200D01*
X7343466Y11760720D01*
X7350932Y11751376D01*
X7351322Y11751708D01*
X7357140Y11744872D01*
X7361930Y11737280D01*
X7368658Y11731338D01*
X7368659Y11731337D01*
X7401600Y11702245D01*
X7407288Y11696898D01*
X7418506Y11685680D01*
X7422094Y11682991D01*
X7422095Y11682990D01*
X7426684Y11679550D01*
X7434523Y11673168D01*
X7469388Y11642377D01*
X7477511Y11638563D01*
X7480664Y11636492D01*
X7493676Y11628673D01*
X7496994Y11626857D01*
X7504176Y11621474D01*
X7547741Y11605142D01*
X7557050Y11601220D01*
X7599163Y11581447D01*
X7608036Y11580065D01*
X7611658Y11578958D01*
X7626328Y11575109D01*
X7630017Y11574298D01*
X7638419Y11571148D01*
X7647364Y11570483D01*
X7647374Y11570481D01*
X7684828Y11567698D01*
X7694855Y11566548D01*
X7708009Y11564500D01*
X7723203Y11564500D01*
X7732541Y11564154D01*
X7781391Y11560524D01*
X7790167Y11562397D01*
X7799124Y11563008D01*
X7799124Y11563002D01*
X7813317Y11564500D01*
X8001988Y11564500D01*
X8070109Y11544498D01*
X8116602Y11490842D01*
X8127988Y11438500D01*
X8127988Y11382992D01*
X8106753Y11312990D01*
X8101160Y11304620D01*
X8101158Y11304616D01*
X8094266Y11294301D01*
X8079500Y11220067D01*
X8079501Y10369934D01*
X8094266Y10295699D01*
X8101160Y10285382D01*
X8101161Y10285379D01*
X8106767Y10276989D01*
X8128001Y10206991D01*
X8128002Y10149998D01*
X8248773Y10149998D01*
X8273353Y10147577D01*
X8308933Y10140500D01*
X9058939Y10140500D01*
X9809066Y10140501D01*
X9815132Y10141707D01*
X9815137Y10141708D01*
X9844652Y10147579D01*
X9869232Y10150000D01*
X9907002Y10150000D01*
X9975123Y10129998D01*
X10021616Y10076342D01*
X10033002Y10024001D01*
X10033000Y8001000D01*
X13335000Y8001000D01*
X13335000Y8439887D01*
X13335737Y8453494D01*
X13338131Y8475531D01*
X13338131Y8475535D01*
X13338500Y8478930D01*
X13338500Y9047070D01*
X13335737Y9072506D01*
X13335000Y9086113D01*
X13335000Y10031512D01*
X13355002Y10099633D01*
X13408658Y10146126D01*
X13485580Y10155091D01*
X13558933Y10140500D01*
X14308878Y10140500D01*
X15059066Y10140501D01*
X15133301Y10155266D01*
X15133543Y10154049D01*
X15163464Y10160000D01*
X15240000Y10160000D01*
X15240000Y10206991D01*
X15261235Y10276993D01*
X15266839Y10285380D01*
X15273734Y10295699D01*
X15288500Y10369933D01*
X15288499Y10923001D01*
X15308501Y10991121D01*
X15362157Y11037614D01*
X15414499Y11049000D01*
X17018000Y11049000D01*
X17018000Y11685067D01*
X20089500Y11685067D01*
X20089501Y8634934D01*
X20104266Y8560699D01*
X20160516Y8476516D01*
X20244699Y8420266D01*
X20318933Y8405500D01*
X21843753Y8405500D01*
X23369066Y8405501D01*
X23404818Y8412612D01*
X23431126Y8417844D01*
X23431128Y8417845D01*
X23443301Y8420266D01*
X23453621Y8427161D01*
X23453622Y8427162D01*
X23517168Y8469623D01*
X23527484Y8476516D01*
X23583734Y8560699D01*
X23598500Y8634933D01*
X23598499Y11685066D01*
X23583734Y11759301D01*
X23527484Y11843484D01*
X23443301Y11899734D01*
X23369067Y11914500D01*
X21844247Y11914500D01*
X20318934Y11914499D01*
X20283182Y11907388D01*
X20256874Y11902156D01*
X20256872Y11902155D01*
X20244699Y11899734D01*
X20234379Y11892839D01*
X20234378Y11892838D01*
X20173985Y11852484D01*
X20160516Y11843484D01*
X20104266Y11759301D01*
X20089500Y11685067D01*
X17018000Y11685067D01*
X17018000Y14613500D01*
X17038002Y14681621D01*
X17091658Y14728114D01*
X17144000Y14739500D01*
X20128196Y14739500D01*
X20196317Y14719498D01*
X20242810Y14665842D01*
X20246783Y14656080D01*
X20286160Y14546405D01*
X20405792Y14323760D01*
X20408587Y14320016D01*
X20408589Y14320014D01*
X20554226Y14124982D01*
X20554231Y14124976D01*
X20557018Y14121244D01*
X20560327Y14117964D01*
X20560332Y14117958D01*
X20733200Y13946592D01*
X20736517Y13943304D01*
X20740279Y13940546D01*
X20740282Y13940543D01*
X20936575Y13796616D01*
X20940346Y13793851D01*
X20944481Y13791675D01*
X20944485Y13791673D01*
X21061952Y13729871D01*
X21164026Y13676167D01*
X21402644Y13592838D01*
X21407237Y13591966D01*
X21646369Y13546565D01*
X21646372Y13546565D01*
X21650958Y13545694D01*
X21771081Y13540974D01*
X21898845Y13535954D01*
X21898850Y13535954D01*
X21903513Y13535771D01*
X21981657Y13544329D01*
X22150107Y13562777D01*
X22150112Y13562778D01*
X22154760Y13563287D01*
X22272861Y13594380D01*
X22394658Y13626446D01*
X22394661Y13626447D01*
X22399181Y13627637D01*
X22631405Y13727409D01*
X22738774Y13793851D01*
X22842358Y13857950D01*
X22842362Y13857953D01*
X22846331Y13860409D01*
X22940989Y13940543D01*
X23035672Y14020698D01*
X23035673Y14020699D01*
X23039238Y14023717D01*
X23121886Y14117958D01*
X23202806Y14210229D01*
X23202810Y14210234D01*
X23205888Y14213744D01*
X23276653Y14323760D01*
X23340094Y14422390D01*
X23340096Y14422393D01*
X23342619Y14426316D01*
X23446428Y14656764D01*
X23515034Y14900024D01*
X23531263Y15027591D01*
X23546533Y15147622D01*
X23546533Y15147628D01*
X23546931Y15150753D01*
X23549268Y15240000D01*
X23530537Y15492055D01*
X23474756Y15738572D01*
X23473063Y15742926D01*
X23384843Y15969784D01*
X23384842Y15969786D01*
X23383150Y15974137D01*
X23257731Y16193574D01*
X23179493Y16292818D01*
X23104147Y16388394D01*
X23104144Y16388397D01*
X23101255Y16392062D01*
X22917160Y16565242D01*
X22709489Y16709309D01*
X22705296Y16711377D01*
X22486993Y16819032D01*
X22486990Y16819033D01*
X22482805Y16821097D01*
X22438379Y16835318D01*
X22386403Y16851955D01*
X22242087Y16898151D01*
X22237480Y16898901D01*
X22237477Y16898902D01*
X21997235Y16938028D01*
X21997236Y16938028D01*
X21992624Y16938779D01*
X21870026Y16940384D01*
X21744573Y16942026D01*
X21744570Y16942026D01*
X21739896Y16942087D01*
X21489455Y16908004D01*
X21484965Y16906695D01*
X21484959Y16906694D01*
X21381851Y16876640D01*
X21246803Y16837277D01*
X21242556Y16835319D01*
X21242553Y16835318D01*
X21207226Y16819032D01*
X21017270Y16731461D01*
X21013361Y16728898D01*
X20809812Y16595446D01*
X20809807Y16595442D01*
X20805899Y16592880D01*
X20774933Y16565242D01*
X20635178Y16440506D01*
X20617333Y16424579D01*
X20455715Y16230254D01*
X20324595Y16014175D01*
X20322786Y16009861D01*
X20322785Y16009859D01*
X20242237Y15817774D01*
X20197448Y15762688D01*
X20126040Y15740500D01*
X16501500Y15740500D01*
X16433379Y15760502D01*
X16386886Y15814158D01*
X16375500Y15866500D01*
X16375500Y16058819D01*
X16376828Y16070704D01*
X16376318Y16070745D01*
X16377038Y16079691D01*
X16379019Y16088447D01*
X16375742Y16141264D01*
X16375500Y16149067D01*
X16375500Y16164940D01*
X16374052Y16175052D01*
X16373022Y16185106D01*
X16370697Y16222575D01*
X16370141Y16231538D01*
X16367093Y16239982D01*
X16366324Y16243694D01*
X16362657Y16258399D01*
X16361596Y16262027D01*
X16360323Y16270918D01*
X16341061Y16313282D01*
X16337254Y16322637D01*
X16324509Y16357943D01*
X16324507Y16357947D01*
X16321460Y16366387D01*
X16316165Y16373635D01*
X16314389Y16376975D01*
X16306726Y16390089D01*
X16304697Y16393261D01*
X16300984Y16401428D01*
X16295129Y16408223D01*
X16295127Y16408226D01*
X16270613Y16436675D01*
X16264324Y16444596D01*
X16259352Y16451402D01*
X16256478Y16455336D01*
X16245735Y16466079D01*
X16239377Y16472926D01*
X16213259Y16503237D01*
X16207400Y16510037D01*
X16199866Y16514920D01*
X16193104Y16520819D01*
X16193108Y16520824D01*
X16182014Y16529800D01*
X15643534Y17068280D01*
X15636068Y17077624D01*
X15635678Y17077292D01*
X15629860Y17084128D01*
X15625070Y17091720D01*
X15585399Y17126756D01*
X15579712Y17132102D01*
X15568494Y17143320D01*
X15564909Y17146007D01*
X15562984Y17147676D01*
X15532708Y17192206D01*
X15531488Y17191560D01*
X15527081Y17199883D01*
X15523961Y17208768D01*
X15508230Y17230067D01*
X15451303Y17307140D01*
X15445711Y17314711D01*
X15397172Y17350562D01*
X15347345Y17387365D01*
X15347343Y17387366D01*
X15339768Y17392961D01*
X15330881Y17396082D01*
X15330879Y17396083D01*
X15222748Y17434056D01*
X15222746Y17434057D01*
X15215500Y17436601D01*
X15207856Y17437324D01*
X15207854Y17437324D01*
X15199879Y17438078D01*
X15184833Y17439500D01*
X15173455Y17439500D01*
X14846908Y17439499D01*
X14778789Y17459501D01*
X14732296Y17513156D01*
X14731920Y17514163D01*
X14731920Y17528000D01*
X14718364Y17527996D01*
X14718363Y17527996D01*
X13518344Y17527632D01*
X8127920Y17525998D01*
X8127922Y17396083D01*
X8127922Y17381642D01*
X8107921Y17313521D01*
X8054266Y17267027D01*
X8031272Y17259501D01*
X8025462Y17259141D01*
X8017019Y17256093D01*
X8013310Y17255325D01*
X7998601Y17251657D01*
X7994973Y17250596D01*
X7986082Y17249323D01*
X7943718Y17230061D01*
X7934363Y17226254D01*
X7899057Y17213509D01*
X7899053Y17213507D01*
X7890613Y17210460D01*
X7883365Y17205165D01*
X7880025Y17203389D01*
X7866911Y17195726D01*
X7863739Y17193697D01*
X7855572Y17189984D01*
X7848777Y17184129D01*
X7848774Y17184127D01*
X7820325Y17159613D01*
X7812405Y17153325D01*
X7801664Y17145478D01*
X7790921Y17134735D01*
X7784075Y17128377D01*
X7746963Y17096400D01*
X7742080Y17088866D01*
X7736181Y17082104D01*
X7736176Y17082108D01*
X7727200Y17071014D01*
X7188720Y16532534D01*
X7179376Y16525068D01*
X7179708Y16524678D01*
X7172872Y16518860D01*
X7165280Y16514070D01*
X7159338Y16507342D01*
X7159337Y16507341D01*
X7130245Y16474400D01*
X7124898Y16468712D01*
X7113680Y16457494D01*
X7110991Y16453906D01*
X7110990Y16453905D01*
X7107550Y16449316D01*
X7101168Y16441477D01*
X7086245Y16424579D01*
X7070377Y16406612D01*
X7066563Y16398489D01*
X7064492Y16395336D01*
X7056673Y16382324D01*
X7054856Y16379005D01*
X7049474Y16371824D01*
X7046325Y16363423D01*
X7046324Y16363422D01*
X7033144Y16328264D01*
X7029217Y16318947D01*
X7013263Y16284966D01*
X7013262Y16284963D01*
X7009447Y16276837D01*
X7008065Y16267963D01*
X7006961Y16264350D01*
X7003115Y16249693D01*
X7002301Y16245990D01*
X6999148Y16237580D01*
X6995698Y16191157D01*
X6994548Y16181144D01*
X6992500Y16167991D01*
X6992500Y16152796D01*
X6992154Y16143459D01*
X6988524Y16094608D01*
X6990397Y16085832D01*
X6991008Y16076875D01*
X6991002Y16076875D01*
X6992500Y16062682D01*
X6992500Y15866500D01*
X6972498Y15798379D01*
X6918842Y15751886D01*
X6866500Y15740500D01*
X5272199Y15740500D01*
X5204078Y15760502D01*
X5157585Y15814158D01*
X5154766Y15820833D01*
X5137008Y15866500D01*
X5115547Y15921686D01*
X5096843Y15969784D01*
X5096842Y15969786D01*
X5095150Y15974137D01*
X4969731Y16193574D01*
X4891493Y16292818D01*
X4816147Y16388394D01*
X4816144Y16388397D01*
X4813255Y16392062D01*
X4629160Y16565242D01*
X4421489Y16709309D01*
X4417296Y16711377D01*
X4198993Y16819032D01*
X4198990Y16819033D01*
X4194805Y16821097D01*
X4150379Y16835318D01*
X4098403Y16851955D01*
X3954087Y16898151D01*
X3949480Y16898901D01*
X3949477Y16898902D01*
X3709235Y16938028D01*
X3709236Y16938028D01*
X3704624Y16938779D01*
X3582026Y16940384D01*
X3456573Y16942026D01*
X3456570Y16942026D01*
X3451896Y16942087D01*
X3201455Y16908004D01*
X3196965Y16906695D01*
X3196959Y16906694D01*
X3093851Y16876640D01*
X2958803Y16837277D01*
X2954556Y16835319D01*
X2954553Y16835318D01*
X2919226Y16819032D01*
X2729270Y16731461D01*
X2725361Y16728898D01*
X2521812Y16595446D01*
X2521807Y16595442D01*
X2517899Y16592880D01*
X2486933Y16565242D01*
X2347178Y16440506D01*
X2329333Y16424579D01*
X2167715Y16230254D01*
X2036595Y16014175D01*
X2034786Y16009861D01*
X2034785Y16009859D01*
X1974670Y15866500D01*
X1938854Y15781089D01*
X1937703Y15776557D01*
X1937702Y15776554D01*
X1931437Y15751886D01*
X1876639Y15536117D01*
X1851316Y15284639D01*
X1000Y15284639D01*
X1000Y16506457D01*
X1198Y16513522D01*
X13967Y16740890D01*
X13999Y16741433D01*
X16912Y16789589D01*
X18462Y16803086D01*
X48087Y16977450D01*
X48371Y16979058D01*
X67080Y17081144D01*
X69940Y17093312D01*
X115883Y17252787D01*
X116664Y17255392D01*
X150753Y17364786D01*
X154639Y17375518D01*
X216442Y17524725D01*
X217952Y17528219D01*
X266759Y17636664D01*
X271380Y17645901D01*
X348422Y17785298D01*
X350853Y17789501D01*
X413492Y17893120D01*
X418545Y17900824D01*
X510044Y18029778D01*
X513607Y18034557D01*
X588889Y18130647D01*
X594104Y18136877D01*
X699125Y18254395D01*
X703981Y18259530D01*
X790470Y18346019D01*
X795605Y18350875D01*
X913123Y18455896D01*
X919353Y18461111D01*
X1015443Y18536393D01*
X1020222Y18539956D01*
X1149176Y18631455D01*
X1156880Y18636508D01*
X1260499Y18699147D01*
X1264684Y18701568D01*
X1404106Y18778624D01*
X1413336Y18783241D01*
X1521781Y18832048D01*
X1525261Y18833552D01*
X1578235Y18855494D01*
X1674482Y18895361D01*
X1685214Y18899247D01*
X1736866Y18915343D01*
X1794624Y18933341D01*
X1797213Y18934117D01*
X1956688Y18980060D01*
X1968856Y18982920D01*
X2070942Y19001629D01*
X2072550Y19001913D01*
X2246914Y19031538D01*
X2260411Y19033088D01*
X2308567Y19036001D01*
X2309110Y19036033D01*
X2536478Y19048802D01*
X2543543Y19049000D01*
X22856457Y19049000D01*
X22863522Y19048802D01*
G37*
%TD.AperFunction*%
%TD*%
M02*
